<?xml version="1.0" encoding="UTF-8" standalone="no"?>
<!-- Created with Inkscape (http://www.inkscape.org/) -->

<svg
   xmlns:dc="http://purl.org/dc/elements/1.1/"
   xmlns:cc="http://creativecommons.org/ns#"
   xmlns:rdf="http://www.w3.org/1999/02/22-rdf-syntax-ns#"
   xmlns:svg="http://www.w3.org/2000/svg"
   xmlns="http://www.w3.org/2000/svg"
   xmlns:sodipodi="http://sodipodi.sourceforge.net/DTD/sodipodi-0.dtd"
   xmlns:inkscape="http://www.inkscape.org/namespaces/inkscape"
   width="210mm"
   height="297mm"
   viewBox="0 0 210 297"
   version="1.1"
   id="svg8"
   inkscape:version="0.92.5 (2060ec1f9f, 2020-04-08)"
   sodipodi:docname="syahravi.svg">
  <defs
     id="defs2" />
  <sodipodi:namedview
     id="base"
     pagecolor="#ffffff"
     bordercolor="#666666"
     borderopacity="1.0"
     inkscape:pageopacity="0.0"
     inkscape:pageshadow="2"
     inkscape:zoom="0.5"
     inkscape:cx="406.25862"
     inkscape:cy="474.77519"
     inkscape:document-units="mm"
     inkscape:current-layer="layer1"
     showgrid="false"
     inkscape:window-width="1366"
     inkscape:window-height="744"
     inkscape:window-x="0"
     inkscape:window-y="0"
     inkscape:window-maximized="1" />
  <metadata
     id="metadata5">
    <rdf:RDF>
      <cc:Work
         rdf:about="">
        <dc:format>image/svg+xml</dc:format>
        <dc:type
           rdf:resource="http://purl.org/dc/dcmitype/StillImage" />
        <dc:title />
      </cc:Work>
    </rdf:RDF>
  </metadata>
  <g
     inkscape:label="Layer 1"
     inkscape:groupmode="layer"
     id="layer1">
    <path
       style="fill:#005959;fill-opacity:0.46875;stroke-width:8.42585182"
       d="m 40.977778,120.04272 a 27.729482,27.729482 0 0 0 -27.728001,27.46264 l -0.05308,73.62557 a 27.316614,27.316614 0 1 0 54.590407,0 V 175.2333 h 47.792146 a 27.746334,27.746334 0 0 0 0,-55.19058 z m 67.897102,73.35611 a 27.956979,27.956979 0 0 0 -28.287403,27.31561 v 44.60324 l 1.739379,-0.27366 c 0.168901,0.25114 0.36994,0.47674 0.530781,0.73496 0.20592,0.33898 0.433919,0.6605 0.632885,1.00445 0.122535,0.22905 0.298049,0.41994 0.453238,0.62466 0.125619,0.18628 0.05915,0.0989 0.191893,0.26952 0.235771,0.26539 0.400526,0.58106 0.56346,0.89419 0.290367,0.52468 0.543011,1.06958 0.812542,1.60463 0.328039,0.67559 0.690292,1.33402 1.135072,1.93949 0.359268,0.57044 0.724217,1.1353 1.11876,1.68218 0.296349,0.42317 0.637195,0.80805 0.988106,1.18411 H 134.5736 v -26.95226 h 30.9373 a 31.731761,31.731761 0 0 1 -15.18079,-26.99714 c 0,-11.90579 6.66213,-22.18231 16.37711,-27.63408 z m 74.0584,0.0414 a 27.594672,27.594672 0 0 0 -28.39356,27.59323 27.59531,27.59531 0 0 0 55.19062,0 27.594672,27.594672 0 0 0 -26.79706,-27.59323 z"
       id="path29-3"
       inkscape:connector-curvature="0" />
    <path
       id="path29-5"
       d="m 204.57489,115.49092 a 27.316616,27.316616 0 1 1 -54.59113,0 V 69.595162 h -47.79142 a 27.746335,27.746335 0 0 1 0,-55.18937 h 74.60252 a 27.729482,27.729482 0 0 1 27.72946,27.459949 z m -141.343726,-0.0956 a 27.594672,27.594672 0 1 0 -55.1893437,0 27.594672,27.594672 0 0 0 55.1893437,0 z M 108.89931,87.75823 H 51.064242 c 9.714993,5.451697 16.379858,15.73119 16.379858,27.63702 a 31.731761,31.731761 0 0 1 -15.183382,26.99626 h 30.939736 v 45.94614 a 26.802636,26.802636 0 0 0 26.254946,28.2857 27.999109,27.999109 0 0 0 27.7295,-28.2857 V 115.07502 A 27.956979,27.956979 0 0 0 108.89931,87.75831 Z"
       inkscape:connector-curvature="0"
       style="fill:#666666;fill-opacity:1;stroke-width:8.42585182"
       inkscape:export-xdpi="872.45569"
       inkscape:export-ydpi="872.45569" />
    <text
       xml:space="preserve"
       style="font-style:normal;font-weight:normal;font-size:287.28829956px;line-height:1.25;font-family:sans-serif;letter-spacing:0px;word-spacing:0px;fill:#666666;fill-opacity:1;stroke:none;stroke-width:7.18220615"
       x="-12.389468"
       y="272.9346"
       id="text12-3-3"
       inkscape:export-xdpi="872.45569"
       inkscape:export-ydpi="872.45569"><tspan
         sodipodi:role="line"
         id="tspan10-6-6"
         x="-12.389468"
         y="272.9346"
         style="font-style:normal;font-variant:normal;font-weight:normal;font-stretch:normal;font-family:Merienda;-inkscape-font-specification:Merienda;fill:#666666;fill-opacity:1;stroke-width:7.18220615">R</tspan></text>
    <path
       id="path29"
       d="m 197.79835,114.0199 a 27.316616,27.316616 0 1 1 -54.59113,0 V 68.124092 H 95.415803 a 27.746334,27.746334 0 0 1 0,-55.189356 h 74.602517 a 27.729482,27.729482 0 0 1 27.72947,27.459949 z M 56.454628,113.9243 a 27.594672,27.594672 0 1 0 -55.1893404,0 27.594672,27.594672 0 0 0 55.1893404,0 z M 102.12277,86.28731 H 44.287712 c 9.714987,5.451727 16.379856,15.73116 16.379856,27.637 a 31.731761,31.731761 0 0 1 -15.183382,26.99631 h 30.939732 v 45.94612 a 26.802638,26.802638 0 0 0 26.254952,28.28562 27.999109,27.999109 0 0 0 27.72948,-28.2857 V 113.60392 A 27.956979,27.956979 0 0 0 102.12277,86.28724 Z"
       inkscape:connector-curvature="0"
       style="fill:#005959;fill-opacity:1;stroke-width:8.42585182"
       inkscape:export-xdpi="872.45569"
       inkscape:export-ydpi="872.45569" />
    <text
       xml:space="preserve"
       style="font-style:normal;font-weight:normal;font-size:287.28829956px;line-height:1.25;font-family:sans-serif;letter-spacing:0px;word-spacing:0px;fill:#ea00ff;fill-opacity:1;stroke:none;stroke-width:7.18220615"
       x="-18.827833"
       y="275.13879"
       id="text12-3"
       inkscape:export-xdpi="872.45569"
       inkscape:export-ydpi="872.45569"><tspan
         sodipodi:role="line"
         id="tspan10-6"
         x="-18.827833"
         y="275.13879"
         style="font-style:normal;font-variant:normal;font-weight:normal;font-stretch:normal;font-family:Merienda;-inkscape-font-specification:Merienda;fill:#ea00ff;fill-opacity:1;stroke-width:7.18220615">R</tspan></text>
    <path
       style="opacity:0.98999999;fill:#666666;fill-opacity:0.43055558;stroke-width:2.09052253"
       id="path928"
       d="m 54.597764,107.08741 c -5.118324,6.74184 -9.513906,13.84964 -10.021795,22.57697 -0.151142,2.59769 0.839279,5.16523 0.784351,7.76673 -0.04047,1.90315 -0.812873,3.72367 -1.066606,5.61031 -0.218708,1.62599 -0.232138,3.27298 -0.348185,4.90949 0.07111,4.51535 0.52385,2.42653 -1.250003,6.39867 -0.503068,1.12656 -1.431303,2.14637 -1.514168,3.37731 -0.07584,1.12545 0.801259,2.1149 1.070618,3.21033 0.864729,3.51674 0.604441,2.57176 -1.308437,5.73927 0.716638,10.06018 0.186327,-3.23999 -0.811158,6.9715 -0.09531,0.97502 0.518868,1.93075 0.434241,2.90678 -0.10532,1.21394 -0.826737,2.31111 -0.991496,3.51836 -0.249984,1.83235 0.05137,4.50761 0.213005,6.42268 -1.295504,3.05095 -0.861129,4.56397 0.150125,7.65191 0.331351,1.01189 0.979116,1.93855 1.110086,2.9952 0.130027,1.04889 -0.317642,2.09499 -0.348137,3.15138 -0.02852,0.97601 0.114934,1.94954 0.172673,2.92424 -0.728413,7.32819 -0.261299,-1.68946 0.690641,4.9172 0.394962,2.7414 -1.151289,1.10232 -0.375137,3.8022 0.95395,3.31851 1.915092,-0.0791 0.0063,3.74393 -2.1487,2.80832 -0.684873,0.063 -0.271969,1.81014 -0.22225,3.7523 -0.317138,-0.19364 0.762703,3.13536 0.344825,1.06314 -0.09531,2.46404 0.660615,3.28715 0.96618,1.05186 2.6193,1.13975 3.928951,1.70959 1.388132,1.10006 0.697441,3.69281 1.914318,4.99702 0.797341,1.13198 2.519556,0.99111 3.428248,1.93861 3.388842,3.53358 -1.418256,1.28206 3.947385,3.05706 2.31795,1.17601 2.677374,3.99392 4.41512,5.62564 0.456459,0.42821 1.715294,1.15241 1.801677,0.53253 0.134853,-0.96852 -1.507641,-1.52727 -1.526937,-2.50499 -0.01015,-0.5104 1.062302,0.086 1.484833,0.37211 0.380195,0.25756 0.507175,0.76562 0.760802,1.14803 2.267129,0.78537 4.218547,1.60527 -3.133334,-3.04842 -0.278824,-0.17614 0.613921,1.08342 0.317782,0.93779 -0.89305,-0.43926 -3.29,-1.91501 -2.294728,-1.91041 1.440356,0.006 2.538442,1.37392 3.872241,1.9176 1.022644,0.41716 2.115123,0.63605 3.172683,0.95397 0.88333,1.24864 3.966238,2.96698 2.64996,3.74604 -0.901391,0.53336 -7.126509,-4.999 -8.022422,-5.2475 -1.948004,-0.5404 -4.046054,-0.21664 -6.063894,-0.0938 -1.260422,0.0791 -4.959803,0.42363 -3.725143,0.68823 5.242945,1.12453 10.646301,1.29191 15.969455,1.93792 1.016523,1.27643 2.036486,2.55017 3.049554,3.82938 8.257085,10.42625 3.62553,3.6069 -15.218545,-5.80192 -0.238531,-0.11918 -0.231723,0.65184 -0.497139,0.62653 -0.310423,-0.0321 -0.273626,-0.75767 -0.584375,-0.7308 -0.604755,0.0551 -1.048392,0.61233 -1.572595,0.91833 2.367012,-0.4489 4.785188,-0.68266 7.10105,-1.34651 0.359821,-0.10358 0.458665,-0.59183 0.688273,-0.88734 0.07746,-0.0994 -0.12814,0.37118 -0.231402,0.29943 -0.122717,-0.086 -0.0569,-0.31921 0.01887,-0.44891 0.05133,-0.0892 0.04185,0.20237 0.06638,0.30172 0.151142,0.60604 0.307662,1.21061 0.461512,1.81593 -0.04094,0.28932 0.299751,-1.46401 0.69894,-1.21909 0.231725,0.14222 -0.01651,0.72534 0.25049,0.77672 0.239542,0.0473 0.07902,-0.53889 0.280571,-0.67557 0.112504,-0.0791 0.121066,0.39371 0.240831,0.32931 0.628539,-2.29832 0.104142,2.25078 0.790902,-0.29069 22.81875,0.004 22.814165,32.27377 -0.0041,32.27051 v 0 c -0.06871,-0.12789 -0.137808,-0.25526 -0.206795,-0.38314 -0.03726,0.15401 0.0041,0.56965 -0.111397,0.46143 -0.161173,-0.15002 0.05215,-0.49069 -0.09512,-0.65425 -0.257804,-0.28747 -0.316126,1.91612 -0.48182,1.05427 -0.116222,0.93043 0.06481,-0.22769 -0.225099,-0.62895 -0.08716,-0.12099 -0.12308,0.36521 -0.27165,0.35417 -0.131314,-0.009 0.01524,-0.32242 -0.102018,-0.38176 -0.09489,-0.0473 -0.159287,0.14077 -0.238947,0.21019 -0.107678,-0.54913 -0.215532,-1.09877 -0.323299,-1.64814 -0.158035,0.71109 -0.02989,1.55711 -0.474469,2.13455 -0.04898,0.0629 -0.879964,-1.24395 -1.06823,-1.26166 -0.331213,-0.0321 -0.662277,0.17397 -0.922376,0.38085 -0.07267,0.0551 0.130081,0.13297 0.195065,0.19824 2.230946,-0.4411 4.461913,-0.8821 6.692854,-1.32315 -0.615979,0.0791 -1.230398,0.16979 -1.847967,0.23457 -0.204265,0.0231 -0.414186,0.063 -0.615498,0.0231 -0.383786,-0.0791 -0.756222,-0.21249 -1.114203,-0.37118 -6.558722,-2.90442 -12.700158,-6.96571 -19.630613,-8.81521 -3.16163,-0.84371 7.608306,8.75638 7.363109,6.49263 5.082062,0.97404 10.164122,1.94813 15.246179,2.92218 -1.521854,-0.23781 -3.025761,-0.75378 -4.565576,-0.71349 -2.228561,0.0551 -4.393793,1.22696 -6.612005,1.00486 -2.288223,-0.22905 -8.308469,-4.71689 -9.644295,-5.70075 -0.978783,-0.72061 2.026468,1.34321 3.039707,2.01478 0.961052,-0.12317 1.943786,-0.60759 2.883185,-0.3698 0.915062,0.23136 3.04518,1.11943 2.282555,1.67551 -1.025041,0.74747 -2.489763,-0.61155 -3.758299,-0.59969 -0.321092,0.002 -0.452272,0.82457 -0.717272,0.64316 -5.296406,-3.62668 -5.54946,-2.4746 -4.582402,-4.96243 0.40177,-1.5171 -0.375367,1.81278 -1.330306,0.38406 -4.771829,-7.13971 -0.773927,-3.16759 -1.607383,-7.22911 -0.03403,-0.16381 -0.231678,0.24192 -0.347495,0.36243 -0.04185,-0.32886 -0.08407,-0.65736 -0.126253,-0.98563 -3.334115,-4.86391 0.773286,0.35003 -4.516408,-3.67511 -1.797284,-1.36754 -2.921798,-3.54673 -4.092516,-5.39294 -2.428848,-3.83012 -1.805207,-2.85724 -4.042981,-6.21143 -0.696493,-1.06911 -1.320443,-2.18911 -2.089463,-3.20724 -0.900615,-1.19248 -2.184656,-2.10402 -2.909131,-3.41098 -0.774394,-1.397 -0.913701,-3.06547 -1.503588,-4.54989 -0.560905,-1.41155 -1.393557,-2.70566 -1.942445,-4.12196 -0.866754,-2.23637 -1.908984,-6.21736 -2.578637,-8.65355 -2.093138,-4.16421 -0.582161,-0.009 -0.498805,-3.73466 0.01524,-0.67633 -0.569439,-1.32089 -0.43116,-1.98309 0.166778,-0.79912 1.114254,-1.28816 1.280871,-2.08727 0.332639,-1.59581 -1.378537,-3.28539 -0.02759,-4.89021 2.328795,-7.03324 0.02669,1.9542 -0.423846,-5.2632 -0.06164,-0.98039 0.666069,-1.84923 0.948743,-2.78993 0.323301,-1.07597 0.912241,-2.13418 0.868051,-3.25679 -0.04978,-1.2559 -1.059851,-2.3405 -1.137813,-3.59493 -0.08027,-1.29156 0.451214,-2.54842 0.676894,-3.82262 -1.3103,-9.04423 -0.779449,1.13699 1.655775,-6.14943 0.362487,-1.08467 -0.161591,-2.28202 -0.205738,-3.42476 -0.142126,-3.67572 -0.286505,-7.37952 0.587847,-10.98574 0.311939,-1.18373 0.510893,-2.4033 0.935764,-3.55134 0.450431,-1.21717 1.40855,-2.24369 1.678837,-3.51312 0.294644,-1.38395 -0.215948,-2.8425 -0.02669,-4.24481 0.167431,-1.2438 0.691037,-2.41364 1.084173,-3.60555 2.545247,-7.716 0.830397,-1.39164 2.738392,-9.14052 3.51967,-3.33695 2.93503,-2.42904 5.863772,-6.88945 1.099389,-1.6744 2.495642,-3.22909 3.131896,-5.12845 0.784034,-2.34035 0.998142,-4.86325 1.041913,-7.33099 0.04508,-2.51805 0.223122,-5.20446 -0.778504,-7.51516 -1.007632,-2.32447 -3.314247,-3.83262 -4.971363,-5.74901 0,-18.963811 26.81898,-18.963811 26.81898,0 z"
       inkscape:connector-curvature="0" />
    <path
       style="opacity:0.98999999;fill:#666666;fill-opacity:0.36805558;stroke-width:2.09052253"
       id="path944"
       d="m 154.0645,107.07921 c -6.62192,10.53688 -12.97374,21.23977 -19.01128,32.12309 -2.18778,3.94372 -4.30153,7.92797 -6.45229,11.89202 -8.62007,15.99475 -17.04705,32.11342 -24.68898,48.60359 -3.49434,7.54029 -5.889057,13.27107 -9.135137,20.84621 -4.117612,10.06635 -8.134162,20.20709 -11.393308,30.59103 -0.161989,0.25757 -0.896814,3.43754 -1.172409,3.66504 -0.0041,-5.2e-4 -0.01015,-9.7e-4 -0.01524,-9.9e-4 -5.053797,-0.4622 -10.107608,-0.92504 -15.161429,-1.38762 0.409681,-0.0791 0.840471,-0.0836 1.228999,-0.23642 0.964631,-0.3767 1.887427,-0.85633 2.803286,-1.33989 2.339437,-1.23523 10.232799,-5.78667 11.741276,-6.64994 13.044705,-7.57564 25.786472,-15.65454 38.638452,-23.54805 8.18774,-5.0288 10.23064,-6.21124 18.29168,-11.01452 8.98481,-5.29323 17.9465,-10.62758 26.82647,-16.09537 1.15281,-0.72451 2.32746,-1.41098 3.50253,-2.09705 0.16526,-0.12009 0.26658,-0.32933 0.42761,-0.47881 0,0 15.46238,2.19622 15.46238,2.19622 v 0 c -0.17958,-0.11773 -0.25702,-0.35968 -0.44081,-0.13659 -1.52273,0.96442 -3.37425,1.21965 -4.96241,2.05887 -10.88991,4.71157 -21.59636,9.82421 -32.03369,15.4786 -3.10438,1.71016 -6.23378,3.37564 -9.31312,5.1304 -15.75394,8.97759 -31.07232,18.78116 -45.647733,29.56981 -1.780881,1.38739 -3.582888,2.74812 -5.342625,4.16229 -1.131856,0.90951 -2.233097,1.85684 -3.330622,2.80751 -0.601912,0.52149 -1.185684,1.06358 -1.766912,1.608 -0.260884,0.24423 -0.40163,0.76953 -0.758909,0.75772 -16.038612,-0.51677 -17.090354,3.79865 -15.703081,-1.50764 0.134634,-0.34129 0.342067,-0.41948 0.587691,-0.70874 0.756934,-0.8895 1.353965,-1.90113 2.013879,-2.86023 6.247483,-9.78529 11.769103,-20.00502 17.061763,-30.33285 3.483726,-6.93336 6.921654,-13.88974 10.435862,-20.80774 8.246617,-16.23398 17.035127,-32.18993 24.948067,-48.59431 5.6072,-12.16758 5.12887,-10.78312 9.99785,-22.6121 2.53164,-6.15047 5.32881,-12.72425 6.82877,-19.253 0.16035,-0.6977 0.18505,-1.42015 0.27748,-2.13026 0,0 15.25617,0.3008 15.25617,0.3008 z"
       inkscape:connector-curvature="0" />
    <path
       style="opacity:0.98999999;fill:#666666;fill-opacity:0.29861109;stroke-width:2.09052253"
       id="path950"
       d="m 182.06468,162.80928 c -2.83501,1.19617 -4.67535,1.94609 -7.75185,3.46417 -15.17779,7.48962 -29.49809,16.54462 -43.79029,25.56714 -15.08072,9.72952 -29.90087,19.88234 -44.08643,30.88453 -5.211989,4.04233 -6.887358,5.50559 -11.649228,9.48513 -2.969821,2.88855 -6.521247,5.32728 -9.098439,8.61635 -0.06242,0.086 -0.13527,0.35003 -0.18711,0.25757 -0.07746,-0.13841 0.0322,-0.31598 0.06794,-0.47011 0.08344,-0.35968 -0.02391,-0.87231 0.288528,-1.06944 0.356509,-0.22492 0.843253,0.0413 1.261797,0.0911 2.570546,0.316 5.132711,0.69688 7.702944,1.01531 20.534581,2.62803 41.091778,5.08242 61.675838,7.28947 15.98487,1.64258 32.02762,2.66358 48.08805,3.13756 2.22013,0.0473 4.44096,0.0938 6.66172,0.0713 0.31966,-0.004 1.27855,-0.0145 0.95887,-0.0231 -13.01522,-0.0414 -19.38606,0.0321 -14.27897,-0.0231 0.19508,0.0145 0.3923,0.0231 0.57656,-0.0414 0.11791,-0.0145 0.23687,-0.0231 0.35555,-0.0322 0,0 15.44442,2.43269 15.44442,2.43269 v 0 c -0.12335,-0.004 -0.24685,-0.006 -0.3698,-0.0145 -0.21189,-0.0965 -0.49389,0.0551 -0.71868,0.0414 -7.25527,0.22767 -14.4237,0.25527 -21.62085,-0.41625 -14.31759,-1.14487 -28.62284,-2.45638 -42.90556,-3.97643 -21.89585,-2.4331 -43.780522,-5.03616 -65.755536,-6.666 -2.073736,-0.13296 -4.147046,-0.27276 -6.221244,-0.39879 -1.337077,-0.0814 -2.675746,-0.13623 -4.012492,-0.22261 -0.688273,-0.0473 -1.45277,0.15183 -2.062068,-0.17251 -0.411244,-0.21802 -1.186102,-1.9135 -0.218524,-2.12108 4.384764,-2.87525 8.913424,-5.52467 13.332245,-8.34612 20.521535,-12.97558 40.850319,-26.25377 60.931099,-39.90294 10.84643,-7.40543 12.32548,-8.35582 22.72517,-15.67497 3.82739,-2.69357 10.64431,-7.52738 14.68323,-10.58649 2.51595,-1.90558 2.7994,-2.18639 4.61592,-3.77786 0,0 15.35702,1.58799 15.35702,1.58799 z"
       inkscape:connector-curvature="0" />
  </g>
</svg>
